<?xml version="1.0" encoding="utf-8"?>
<!-- Generator: Adobe Illustrator 15.0.0, SVG Export Plug-In  -->
<!DOCTYPE svg PUBLIC "-//W3C//DTD SVG 1.1//EN" "http://www.w3.org/Graphics/SVG/1.1/DTD/svg11.dtd" [
	<!ENTITY ns_flows "http://ns.adobe.com/Flows/1.0/">
]>
<svg version="1.1"
	 xmlns="http://www.w3.org/2000/svg" xmlns:xlink="http://www.w3.org/1999/xlink" xmlns:a="http://ns.adobe.com/AdobeSVGViewerExtensions/3.0/"
	 x="0px" y="0px" width="800px" height="590px" viewBox="-159.1 -4.3 800 590"
	 overflow="visible" enable-background="new -159.1 -4.3 800 590" xml:space="preserve">
<defs>
</defs>
<path fill="#2992C5" d="M143.6,15l30.5,447.4l-10.8-1.5c0,0-154.9-97.8-162.7-233.1C-5.9,116.8,48.7,20.4,143.6,15z"/>
<path fill="#8658A4" d="M170.1,11l8.8,452.8l-9.8-2c0,0-137.7-109.6-145.5-246.8C16.7,102.5,73.3,16.9,170.1,11z"/>
<path fill="#E56866" d="M198.2,6.6l-2,458.7l-18.7-2c0,0-115.1-107.2-123.4-248.3C47.7,105.4,101.8,12.5,198.2,6.6z"/>
<path fill="#F9A721" d="M232.1,2.7l-26.5,464.6l-13.8-2c0,0-76.2-99.3-87.5-217.8C90.5,102.5,140.1-0.3,232.1,2.7z"/>
<path fill="#F9A721" d="M368.8,33.7l-110.6,441l10.8,1.5c0,0,174.5-76.2,205-208C499.1,159.5,461.7,55.3,368.8,33.7z"/>
<path fill="#E56866" d="M343.2,25.8l-84.6,447.4l4.9,2c0,0,159.3-90,190.3-223.2C479.4,141.8,437.6,47.4,343.2,25.8z"/>
<path fill="#8658A4" d="M316.6,16.9l-10.3-1.2l-65.4,455.5l13.8,2c0,0,136.7-89.5,168.2-226.7C447.9,138.9,410.6,38.6,316.6,16.9z"
	/>
<path fill="#2992C5" d="M273.9,7.1l-51.6,462.7l18.7,2c0,0,96.9-87,127.8-202.1C406.1,129,374.7,19.4,273.9,7.1z"/>
<rect x="201.6" y="490.8" transform="matrix(-0.9965 -8.417306e-02 8.417306e-02 -0.9965 384.9992 1014.0153)" fill="#F5F6F6" width="24.6" height="16.2"/>
<path fill="none" stroke="#FFFFFF" stroke-width="0.2721" stroke-miterlimit="10" d="M184.9,489.3c0,0,2.5,6.9,5.4,15.7l-1,9.3
	l-2.5,22.6"/>
<path fill="none" stroke="#FFFFFF" stroke-width="0.2721" stroke-miterlimit="10" d="M244.4,494.7c0,0-3.4,6.4-7.9,14.3l-1,9.3
	l-1.5,23.1"/>
<polygon fill="#868686" points="237.5,519.8 237.5,519.8 187.3,515.3 187.3,515.3 188.3,503.5 188.3,503.5 238.5,508 238.5,508 "/>
<path fill="#C89D66" d="M235.5,542.4l-0.5,33.9c0,2.5-2.5,3.9-4.4,3.9l-46.2-3.9c-2.5,0-3.9-2.5-3.9-4.4l4.9-33.9L235.5,542.4z"/>
<path fill="#BC8E5C" d="M238,540.4c0,2-2,2.9-3.4,2.9l-48.2-3.9c-2,0-2.9-2-2.9-3.4l0,0c0-2,2-2.9,3.4-2.9L235,537
	C236.5,537,238,538.9,238,540.4L238,540.4z"/>
<path opacity="0.1" fill="#010101" enable-background="new    " d="M235,576.3c0,2.5-2.5,3.9-4.4,3.9l-8.8-1c0,0,1.5-1,1.5-4.4
	c0-2.5,1-26.5,1-32.4c0,0,1-1,1-3c0-2.5-0.5-3.4-0.5-3.4l10.3,1c2,0,2.9,2,2.9,3.4c0,1.5-1,2.5-2,3L235,576.3z"/>
<path fill="#9ACA3C" d="M283.7,7.1c-7.4-4.4-15.7-5.9-25.6-6.9l0,0c-0.5,0-0.5,0-1,0l-41.8,468.1h1l10.8,1.5c0,0,56-84.1,82.1-222.2
	C325,164.9,336.8,38.6,283.7,7.1z"/>
<path fill="#FFDE1B" d="M256.7,0.2c-9.3-0.5-17.2-0.5-25.1,2.9c-57.5,22.6-66.9,148.5-65.4,232.6c2.5,140.1,38.8,231.1,38.8,231.1
	l10.3,2L257.2,0.7C257.2,0.2,256.7,0.2,256.7,0.2z"/>
<path fill="#585857" d="M193.2,533c0,0,1.5-4.4,5.9-4.4c4.4,0,5.9,5.9,5.9,5.9L193.2,533z"/>
<path fill="#585857" d="M216.8,535.5c0,0-0.5-3.9,4.9-3.9c5.4,0,4.9,4.4,4.9,4.4L216.8,535.5z"/>
<path fill="#585857" d="M281.9,471.2c-24.2,8.3-31.7,23-31.7,23l-72.3-5.9c0,0-2.6-13.2-22.8-28L281.9,471.2z"/>
</svg>
